<svg width="112" height="20" viewBox="0 0 112 20" fill="none" xmlns="http://www.w3.org/2000/svg">
<path d="M54.3643 0.384113H69.8928V5.0563H59.7444V8.32586H68.9228V12.7476H59.7444V19.6167H54.3643V0.384113Z" fill="white"/>
<path d="M71.9512 10.0548V9.99892C71.9512 4.39703 76.3874 0 82.4044 0C85.8154 0 88.2283 1.04364 90.282 2.80095L87.1195 6.56492C85.7319 5.41165 84.3453 4.75279 82.4337 4.75279C79.6313 4.75279 77.4691 7.08727 77.4691 10.029V10.0828C77.4691 13.1868 79.6595 15.4095 82.7386 15.4095C84.0405 15.4095 85.0397 15.1354 85.8436 14.6152V12.2797H82.0171V8.37919H90.946V17.0314C88.8944 18.7081 86.0378 20 82.5151 20C76.4699 20 71.9512 15.8792 71.9512 10.0548Z" fill="white"/>
<path d="M91.2549 0.384329H97.2719L101.681 12.5544L106.091 0.384329H112L104.123 19.7534H99.1303L91.2549 0.384329Z" fill="white"/>
<path d="M0 0.377768L17.1179 19.5996H32.0953L14.9784 0.377768H0Z" fill="white"/>
<path d="M36.4121 11.8223L49.2098 0.377726H34.2336L27.4072 6.4794L36.4121 11.8223Z" fill="#008FD0"/>
</svg>
