<svg width="246" height="44" viewBox="0 0 246 44" fill="none" xmlns="http://www.w3.org/2000/svg">
<path d="M119.407 0.844795H153.515V11.1236H131.225V18.3166H151.384V28.0445H131.225V43.1565H119.407V0.844795Z" fill="white"/>
<path d="M158.036 22.1206V21.9976C158.036 9.67347 167.78 0 180.996 0C188.488 0 193.787 2.296 198.298 6.16208L191.352 14.4428C188.304 11.9056 185.259 10.4561 181.06 10.4561C174.905 10.4561 170.156 15.592 170.156 22.0638V22.1821C170.156 29.011 174.967 33.9009 181.73 33.9009C184.589 33.9009 186.784 33.2979 188.55 32.1535V27.0153H180.145V18.4342H199.757V37.469C195.25 41.1578 188.976 44 181.239 44C167.961 44 158.036 34.9342 158.036 22.1206Z" fill="white"/>
<path d="M200.436 0.845036H213.651L223.336 27.6191L233.022 0.845036H246L228.7 43.457H217.733L200.436 0.845036Z" fill="white"/>
<path d="M0 0.831333L37.5983 43.1194H70.4949L32.8991 0.831333H0Z" fill="white"/>
<path d="M79.9763 26.0093L108.086 0.831289H75.1913L60.1978 14.255L79.9763 26.0093Z" fill="#263A68"/>
</svg>
